# xmcd
#
# Track frame offsets: 
#        183
#        12285
#        24193
#        34475
#        46153
#        57875
#        68380
#        80143
#        90395
#        104135
#        114968
#        126458
#
# Disc length: 1850 seconds
#
# Revision: 2
# Processed by: cddbd v1.5.2PL0 Copyright (c) Steve Scherf et al.
# Submitted via: ExactAudioCopy v1.0b1
#
DISCID=9607380c
DTITLE=Marv Johnson - Marvelous Marv Johnson - Golden Classics
DYEAR=1991
DGENRE=R&B
TTITLE0=You've Got What It Takes (mono)
TTITLE1=Happy Days (mono)
TTITLE2=Ain't Gonna Be That Way (mono)
TTITLE3=Merry-Go-Round (mono)
TTITLE4=I'm Coming Home (mono)
TTITLE5=Come To Me (mono)
TTITLE6=I Love The Way You Love (mono)
TTITLE7=Oh Mary (mono)
TTITLE8=I Need You (stereo)
TTITLE9=Magic Mirror (mono)
TTITLE10=Whisper (mono)
TTITLE11=(You've Got To) Move Two Mountains (stereo)
EXTD=
EXTT0=
EXTT1=
EXTT2=
EXTT3=
EXTT4=
EXTT5=
EXTT6=
EXTT7=
EXTT8=
EXTT9=
EXTT10=
EXTT11=
PLAYORDER=
